<svg width="1938" height="654" viewBox="0 0 1938 654" fill="none" xmlns="http://www.w3.org/2000/svg">
<rect width="1938" height="654" rx="100" fill="#E0E0E0"/>
<path d="M133.902 325.574C133.902 324.988 134.293 323.23 135.074 320.301C135.855 317.273 137.271 313.416 139.322 308.729C141.471 303.943 143.912 299.402 146.646 295.105C149.381 290.809 153.043 287.146 157.633 284.119C162.223 280.994 167.105 279.432 172.281 279.432C178.922 279.432 184.391 281.629 188.688 286.023C192.984 290.418 195.133 296.326 195.133 303.748C195.133 307.752 193.814 313.123 191.178 319.861C179.557 351.502 173.746 373.426 173.746 385.633C173.746 400.965 179.117 408.631 189.859 408.631C189.859 408.631 189.908 408.631 190.006 408.631C198.014 408.631 204.947 405.604 210.807 399.549C216.764 393.494 220.426 387.635 221.793 381.971L243.766 293.787C245.523 286.365 249.381 282.654 255.338 282.654C258.17 282.654 260.27 283.484 261.637 285.145C263.102 286.707 263.834 288.514 263.834 290.564C263.834 290.955 263.688 291.59 263.395 292.469C263.102 293.348 262.955 294.08 262.955 294.666L233.512 412.879C229.508 428.699 221.207 442.762 208.609 455.066C196.012 467.371 182.291 473.523 167.447 473.523C159.049 473.523 152.164 471.18 146.793 466.492C141.422 461.805 138.736 455.555 138.736 447.742C138.736 442.762 139.811 438.709 141.959 435.584C144.205 432.459 146.305 430.604 148.258 430.018C150.309 429.432 152.213 429.139 153.971 429.139C156.803 429.139 159.195 429.969 161.148 431.629C163.199 433.387 164.225 435.73 164.225 438.66C164.225 441.688 163.102 444.666 160.855 447.596C158.707 450.623 155.533 452.479 151.334 453.162C149.771 453.357 148.941 453.65 148.844 454.041C148.844 454.822 149.332 456.141 150.309 457.996C151.383 459.949 153.385 461.902 156.314 463.855C159.342 465.906 163.053 466.932 167.447 466.932C176.627 466.932 185.709 462.049 194.693 452.283C203.775 442.615 210.904 426.6 216.08 404.236C208.658 411.658 199.674 415.369 189.127 415.369C179.752 415.369 171.793 412.586 165.25 407.02C158.707 401.355 155.436 392.518 155.436 380.506C155.436 369.275 160.66 349.695 171.109 321.766C175.895 308.387 178.287 299.354 178.287 294.666C178.287 288.904 176.09 286.023 171.695 286.023C159.684 286.023 150.406 298.621 143.863 323.816C143.277 326.062 142.643 327.43 141.959 327.918C141.373 328.406 140.201 328.65 138.443 328.65C135.416 328.553 133.902 327.527 133.902 325.574ZM387.613 366.15C387.613 363.904 389.615 362.781 393.619 362.781H579.947C583.951 362.781 585.953 363.904 585.953 366.15C585.953 368.396 583.561 369.52 578.775 369.52H403.58C402.799 369.52 401.627 369.568 400.064 369.666C398.6 369.764 397.477 369.812 396.695 369.812H394.791C390.006 369.812 387.613 368.592 387.613 366.15ZM387.613 307.85C387.613 305.604 389.615 304.48 393.619 304.48H579.947C583.951 304.48 585.953 305.604 585.953 307.85C585.953 310.096 583.561 311.219 578.775 311.219H403.58C402.799 311.219 401.627 311.268 400.064 311.365C398.6 311.463 397.477 311.512 396.695 311.512H394.791C390.006 311.512 387.613 310.291 387.613 307.85ZM748.111 412V402.771C759.732 402.771 767.789 400.867 772.281 397.059C776.773 393.25 779.02 387.732 779.02 380.506V229.334C779.02 223.768 777.311 220.252 773.893 218.787C770.475 217.225 763.004 216.443 751.48 216.443H748.111V207.068H799.088C801.92 207.068 803.971 207.459 805.24 208.24C806.607 208.924 807.877 210.633 809.049 213.367L874.088 381.678L939.566 213.367C940.738 210.535 941.91 208.777 943.082 208.094C944.352 207.41 946.354 207.068 949.088 207.068H1000.36V216.443H996.549C985.318 216.443 978.092 217.225 974.869 218.787C971.744 220.35 970.084 223.768 969.889 229.041V389.734C970.084 395.301 971.744 398.865 974.869 400.428C978.092 401.99 985.318 402.771 996.549 402.771H1000.36V412C986.002 411.414 971.695 411.121 957.438 411.121C943.277 411.121 929.02 411.414 914.664 412V402.771H918.473C929.703 402.771 937.027 402.039 940.445 400.574C943.863 399.012 945.572 395.301 945.572 389.441V216.15H945.279L938.102 235.34L872.037 405.115C870.279 409.314 868.277 411.414 866.031 411.414C863.785 411.414 861.783 409.412 860.025 405.408L794.986 237.391C794.205 235.145 792.936 231.873 791.178 227.576C789.518 223.279 788.248 220.057 787.369 217.908H787.076V380.213C787.076 383.436 787.369 386.121 787.955 388.27C788.639 390.32 789.908 392.615 791.764 395.154C793.717 397.596 796.891 399.5 801.285 400.867C805.68 402.137 811.246 402.771 817.984 402.771V412C806.363 411.414 794.791 411.121 783.268 411.121C771.646 411.121 759.928 411.414 748.111 412ZM1038.74 412V402.771H1042.69C1054.12 402.771 1061.44 402.039 1064.66 400.574C1067.98 399.012 1069.64 395.496 1069.64 390.027V229.334C1069.64 223.768 1067.94 220.252 1064.52 218.787C1061.1 217.225 1053.82 216.443 1042.69 216.443H1038.74V207.068H1139.22C1158.46 207.068 1174.38 210.682 1186.98 217.908C1195.77 223.084 1202.75 229.676 1207.93 237.684C1213.1 245.691 1215.69 254.09 1215.69 262.879C1215.69 276.258 1209.44 288.709 1196.94 300.232C1184.44 311.756 1166.42 317.518 1142.89 317.518H1096.3V389.148C1096.3 395.105 1097.96 398.865 1101.29 400.428C1104.61 401.99 1112.27 402.771 1124.28 402.771H1126.92V412C1112.08 411.414 1097.38 411.121 1082.83 411.121C1068.28 411.121 1053.58 411.414 1038.74 412ZM1095.43 309.461H1133.8C1142.98 309.461 1150.89 308.484 1157.54 306.531C1164.18 304.48 1169.16 302.039 1172.48 299.207C1175.89 296.375 1178.58 292.713 1180.53 288.221C1182.58 283.729 1183.8 279.676 1184.2 276.062C1184.59 272.449 1184.78 268.055 1184.78 262.879C1184.78 257.898 1184.59 253.699 1184.2 250.281C1183.8 246.863 1182.68 242.811 1180.83 238.123C1179.07 233.436 1176.48 229.725 1173.06 226.99C1169.74 224.158 1164.76 221.717 1158.12 219.666C1151.48 217.518 1143.57 216.443 1134.39 216.443H1115.49C1106.51 216.443 1100.89 216.98 1098.65 218.055C1096.5 219.129 1095.43 222.498 1095.43 228.162V309.461ZM1265.93 410.535V349.891C1265.93 345.887 1267.15 343.885 1269.6 343.885C1271.84 343.885 1273.11 345.398 1273.4 348.426C1274.38 366.785 1280 381.092 1290.25 391.346C1302.26 403.357 1318.67 409.363 1339.47 409.363C1351.68 409.363 1361.59 405.066 1369.21 396.473C1376.92 387.781 1380.78 377.576 1380.78 365.857C1380.78 356.678 1378.43 348.426 1373.75 341.102C1369.06 333.777 1362.81 328.504 1355 325.281C1352.36 324.305 1344.11 322.107 1330.24 318.689C1316.37 315.271 1307.93 313.074 1304.9 312.098C1294.06 308.289 1284.83 301.551 1277.21 291.883C1269.69 282.117 1265.93 270.74 1265.93 257.752C1265.93 241.736 1271.6 228.211 1282.93 217.176C1294.35 206.043 1308.27 200.477 1324.67 200.477C1333.27 200.477 1341.28 202.039 1348.7 205.164C1356.12 208.289 1361 210.926 1363.35 213.074C1365.79 215.125 1368.72 217.957 1372.13 221.57C1379.95 208.973 1384.34 202.234 1385.32 201.355C1385.9 200.965 1386.49 200.77 1387.08 200.77C1389.52 200.77 1390.74 203.357 1390.74 208.533V269.764C1390.74 273.182 1389.42 274.891 1386.78 274.891C1384.83 274.891 1383.66 273.67 1383.27 271.229C1382.88 268.689 1382.05 264.393 1380.78 258.338C1379.61 252.186 1377.51 245.984 1374.48 239.734C1364.32 219.227 1347.92 208.973 1325.26 208.973C1325.16 208.973 1325.06 208.973 1324.97 208.973C1312.96 208.973 1303.09 212.977 1295.38 220.984C1287.76 228.895 1283.95 238.074 1283.95 248.523C1283.95 257.508 1286.54 265.32 1291.71 271.961C1296.89 278.504 1303.29 283.191 1310.9 286.023C1313.35 286.805 1321.79 288.953 1336.25 292.469C1350.8 295.984 1360.17 298.719 1364.37 300.672C1373.94 305.066 1382.05 312.293 1388.69 322.352C1395.43 332.312 1398.79 343.885 1398.79 357.068C1398.79 373.865 1393.23 388.318 1382.1 400.428C1371.06 412.537 1356.85 418.592 1339.47 418.592C1317.69 418.592 1299.38 411.609 1284.54 397.645C1276.72 411.414 1271.74 418.299 1269.6 418.299C1269.4 418.299 1269.16 418.25 1268.86 418.152C1268.67 418.055 1268.47 418.006 1268.28 418.006C1266.71 417.42 1265.93 414.93 1265.93 410.535ZM1462.52 337C1462.52 322.84 1463.64 309.217 1465.88 296.131C1468.23 282.947 1471.21 271.521 1474.82 261.854C1478.43 252.186 1482.54 243.152 1487.12 234.754C1491.71 226.355 1496.26 219.324 1500.75 213.66C1505.24 207.898 1509.54 203.016 1513.64 199.012C1517.74 195.008 1521.11 192.127 1523.75 190.369C1526.38 188.514 1528.09 187.586 1528.87 187.586C1530.83 187.586 1531.8 188.367 1531.8 189.93C1531.8 190.711 1530.04 193.006 1526.53 196.814C1523.11 200.623 1518.81 206.092 1513.64 213.221C1508.56 220.35 1503.48 229.041 1498.4 239.295C1493.33 249.451 1489.03 263.221 1485.51 280.604C1482 297.986 1480.24 316.98 1480.24 337.586C1480.24 353.602 1481.41 368.787 1483.76 383.143C1486.2 397.4 1489.08 409.266 1492.4 418.738C1495.72 428.211 1499.58 437.098 1503.97 445.398C1508.37 453.699 1512.22 459.9 1515.54 464.002C1518.96 468.104 1522.28 471.961 1525.5 475.574C1528.73 479.188 1530.44 481.092 1530.63 481.287C1531.41 482.264 1531.66 483.338 1531.36 484.51C1531.07 485.779 1530.19 486.414 1528.73 486.414C1527.36 486.414 1524.38 484.607 1519.79 480.994C1515.2 477.381 1509.63 471.424 1503.09 463.123C1496.65 454.822 1490.4 445.154 1484.34 434.119C1478.38 423.182 1473.26 409.07 1468.96 391.785C1464.66 374.5 1462.52 356.238 1462.52 337ZM1573.7 396.766C1573.7 391.98 1575.16 388.074 1578.09 385.047C1581.12 382.02 1584.63 380.506 1588.64 380.506C1595.47 380.506 1598.89 383.68 1598.89 390.027C1598.89 392.859 1597.92 395.74 1595.96 398.67C1594.11 401.6 1591.18 403.553 1587.17 404.529C1590.49 407.264 1594.69 408.631 1599.77 408.631C1599.97 408.631 1600.16 408.631 1600.36 408.631C1604.56 408.631 1608.27 407.459 1611.49 405.115C1614.81 402.674 1617.64 398.963 1619.99 393.982C1622.33 389.002 1624.09 384.559 1625.26 380.652C1626.43 376.746 1627.8 371.619 1629.36 365.271C1631.8 355.506 1634.15 346.375 1636.39 337.879C1640.59 320.691 1642.69 309.705 1642.69 304.92C1642.69 298.963 1641.37 294.324 1638.74 291.004C1636.1 287.684 1632.58 286.023 1628.19 286.023C1621.55 286.023 1614.86 289.246 1608.12 295.691C1601.48 302.039 1596.3 311.316 1592.59 323.523C1591.81 325.965 1591.18 327.43 1590.69 327.918C1590.3 328.406 1589.13 328.65 1587.17 328.65C1584.15 328.65 1582.63 327.674 1582.63 325.721C1582.63 323.67 1583.66 320.252 1585.71 315.467C1587.86 310.584 1590.74 305.408 1594.35 299.939C1597.96 294.471 1602.85 289.686 1609 285.584C1615.25 281.482 1621.84 279.432 1628.78 279.432C1642.94 279.432 1652.55 286.219 1657.63 299.793C1660.07 295.203 1663.79 290.662 1668.77 286.17C1673.75 281.678 1679.85 279.432 1687.08 279.432C1693.03 279.432 1698.84 280.896 1704.51 283.826C1710.27 286.658 1713.15 291.492 1713.15 298.328C1713.15 303.504 1711.54 307.459 1708.32 310.193C1705.09 312.83 1701.82 314.148 1698.5 314.148C1694.89 314.148 1692.2 313.172 1690.45 311.219C1688.79 309.168 1687.96 306.971 1687.96 304.627C1687.96 303.65 1688.05 302.527 1688.25 301.258C1688.44 299.891 1689.52 297.938 1691.47 295.398C1693.52 292.762 1696.35 291.053 1699.97 290.271C1696.74 287.439 1692.35 286.023 1686.78 286.023C1674.97 286.023 1666.13 296.717 1660.27 318.104C1655.68 337.537 1652.31 351.258 1650.16 359.266C1646.35 375.477 1644.45 385.535 1644.45 389.441C1644.45 396.473 1645.82 401.453 1648.55 404.383C1651.38 407.215 1654.7 408.631 1658.51 408.631C1665.35 408.631 1672.04 405.457 1678.58 399.109C1685.22 392.664 1690.45 383.338 1694.25 371.131C1695.04 368.689 1695.67 367.273 1696.16 366.883C1696.65 366.395 1697.82 366.15 1699.67 366.15C1702.7 366.15 1704.17 367.127 1704.07 369.08C1704.07 370.838 1703.04 374.109 1700.99 378.895C1699.04 383.582 1696.26 388.758 1692.64 394.422C1689.13 399.988 1684.24 404.871 1677.99 409.07C1671.84 413.27 1665.15 415.369 1657.93 415.369C1652.55 415.369 1647.09 413.855 1641.52 410.828C1636.05 407.801 1632 402.479 1629.36 394.861C1621.55 408.436 1611.78 415.271 1600.06 415.369C1592.84 415.369 1586.64 413.66 1581.46 410.242C1576.29 406.824 1573.7 402.332 1573.7 396.766ZM1722.09 484.07C1722.09 483.289 1723.84 480.994 1727.36 477.186C1730.88 473.377 1735.17 467.908 1740.25 460.779C1745.33 453.65 1750.41 444.91 1755.48 434.559C1760.66 424.305 1764.96 410.535 1768.38 393.25C1771.89 375.965 1773.65 356.922 1773.65 336.121C1773.65 315.711 1771.89 296.961 1768.38 279.871C1764.96 262.781 1760.71 249.158 1755.63 239.002C1750.65 228.748 1745.62 220.105 1740.54 213.074C1735.46 206.043 1731.17 200.721 1727.65 197.107C1724.14 193.396 1722.38 191.004 1722.38 189.93C1722.38 188.367 1723.31 187.586 1725.16 187.586C1726.53 187.586 1729.46 189.393 1733.95 193.006C1738.44 196.619 1743.96 202.527 1750.5 210.73C1757.14 218.934 1763.44 228.553 1769.4 239.588C1775.46 250.525 1780.63 264.588 1784.93 281.775C1789.22 298.963 1791.37 317.273 1791.37 336.707C1791.37 353.504 1789.81 369.422 1786.69 384.461C1783.66 399.402 1779.95 411.951 1775.55 422.107C1771.16 432.361 1765.93 441.883 1759.88 450.672C1753.92 459.461 1748.7 466.199 1744.21 470.887C1739.71 475.672 1735.12 479.92 1730.44 483.631C1727.8 485.389 1726.04 486.316 1725.16 486.414C1723.11 486.414 1722.09 485.633 1722.09 484.07Z" fill="black"/>
</svg>
